<svg id="visual" viewBox="0 0 900 600" width="900" height="600" xmlns="http://www.w3.org/2000/svg" xmlns:xlink="http://www.w3.org/1999/xlink" version="1.1"><rect x="0" y="0" width="900" height="600" fill="#dbe9f0"></rect><path d="M0 462L21.5 463C43 464 86 466 128.8 461.2C171.7 456.3 214.3 444.7 257.2 437.5C300 430.3 343 427.7 385.8 439.7C428.7 451.7 471.3 478.3 514.2 481.8C557 485.3 600 465.7 642.8 460.3C685.7 455 728.3 464 771.2 465.5C814 467 857 461 878.5 458L900 455L900 601L878.5 601C857 601 814 601 771.2 601C728.3 601 685.7 601 642.8 601C600 601 557 601 514.2 601C471.3 601 428.7 601 385.8 601C343 601 300 601 257.2 601C214.3 601 171.7 601 128.8 601C86 601 43 601 21.5 601L0 601Z" fill="#0066FF" stroke-linecap="round" stroke-linejoin="miter"></path></svg>